<?xml version="1.0" encoding="UTF-8"?>
<svg width="512" height="512" viewBox="0 0 512 512" fill="none" xmlns="http://www.w3.org/2000/svg">
  <!-- Фон -->
  <rect width="512" height="512" rx="128" fill="#000000"/>
  
  <!-- Чашка кофе -->
  <path d="M256 128C200 128 160 168 160 224C160 280 200 320 256 320C312 320 352 280 352 224C352 168 312 128 256 128Z" fill="#FFFFFF"/>
  <path d="M256 320V384" stroke="#FFFFFF" stroke-width="32" stroke-linecap="round"/>
  <path d="M192 384H320" stroke="#FFFFFF" stroke-width="32" stroke-linecap="round"/>
  
  <!-- Пар -->
  <path d="M224 96C224 96 240 80 256 80C272 80 288 96 288 96" stroke="#FFFFFF" stroke-width="16" stroke-linecap="round"/>
  <path d="M208 64C208 64 224 48 256 48C288 48 304 64 304 64" stroke="#FFFFFF" stroke-width="16" stroke-linecap="round"/>
</svg> 
